<svg xmlns="http://www.w3.org/2000/svg" viewBox="0 0 512 512" style="enable-background:new 0 0 512 512" xml:space="preserve"><path d="m148.1 325.1 3.4.6-1.9 3.3c0 2.1 1.7 3.8 3.8 3.8l3.3-2 .7 3.6c0 5.1-4.2 9.3-9.3 9.3-5.1 0-9.3-4.2-9.3-9.3 0-5.1 4.2-9.3 9.3-9.3zm0 25.3c-8.8 0-16-7.2-16-16s7.2-16 16-16 16 7.2 16 16c0 8.9-7.2 16-16 16zm286.8-104.5C389.6 366 287.3 419.4 166.6 419.4c-57 0-102.5-19.6-131.6-52.3l.2-.1c8.4.4 15.9.6 23.5.6 7 0 13.8-.1 20.1-.4l1.8-.1 1-.1c16-1 28.4-3.2 40-6.5 2.1-.6 4.1-1.2 6.1-1.9 2.2-.8 3.3-3.1 2.6-5.3-.8-2.2-3.1-3.3-5.3-2.6-14.7 5.1-34.1 7.9-57.9 8.4-12.1.3-25.3-.1-39.7-1-3-4-5.7-8.1-8.2-12.4l-4-7.3C3.2 314.8-2.1 287.2.7 257.3h349.1c28.7 0 56.7-10.7 70-22.5-23.8-19.4-21.5-65.4-6.3-82.9 13.2 10.6 34.4 32.9 30.8 61.3 16.6-8.3 45.4-12.4 67.7.5-14.1 27.3-45 35.5-77.1 32.2zm-386.8 2.8h47.2v-47.2H48.1v47.2zm54.5 0h47.2v-47.2h-47.2v47.2zm0-54.4h47.2v-47.2h-47.2v47.2zm54.4 54.4h47.2v-47.2H157v47.2zm0-54.4h47.2v-47.2H157v47.2zm54.5 54.4h47.2v-47.2h-47.2v47.2zm0-54.4h47.2v-47.2h-47.2v47.2zm0-54.5h47.2V92.6h-47.2v47.2zM266 248.7h47.2v-47.2H266v47.2z" style="fill-rule:evenodd;clip-rule:evenodd;fill:#0db7ed"/></svg>