<svg version="1.1" id="Layer_1" xmlns="http://www.w3.org/2000/svg" x="0" y="0" viewBox="0 0 512 512" style="enable-background:new 0 0 512 512" xml:space="preserve"><style>.st0{fill:#00546b}</style><path class="st0" d="M471.6 393.4c-27.9-.7-49.4 2.1-67.6 9.8-5.2 2.1-13.6 2.1-14.3 8.7 2.8 2.8 3.1 7.3 5.6 11.1 4.2 7 11.5 16.4 18.1 21.2 7.3 5.6 14.6 11.1 22.3 16 13.6 8.4 28.9 13.2 42.1 21.6 7.7 4.9 15.3 11.1 23 16.4 3.8 2.8 6.3 7.3 11.1 9.1v-1c-2.4-3.1-3.1-7.7-5.6-11.1-3.5-3.5-7-6.6-10.4-10.1-10.1-13.6-22.6-25.4-36.2-35.2-11.1-7.7-35.5-18.1-40-31l-.7-.7c7.7-.7 16.7-3.5 24-5.6 11.8-3.1 22.6-2.4 34.8-5.6 5.6-1.4 11.1-3.1 16.7-4.9V399c-6.3-6.3-10.8-14.6-17.4-20.5-17.8-15.3-37.3-30.3-57.5-42.8-10.8-7-24.7-11.5-36.2-17.4-4.2-2.1-11.1-3.1-13.6-6.6-6.3-7.7-9.8-17.8-14.3-26.8-10.1-19.2-19.8-40.4-28.6-60.6-6.3-13.6-10.1-27.2-17.8-39.7-35.9-59.2-74.9-95.1-134.8-130.2-12.6-7.5-27.9-10.6-44.3-14.4-8.7-.3-17.4-1-26.1-1.4-5.6-2.4-11.1-9.1-16-12.2C68 13.9 16.8-13.3 2.2 22.6-7.2 45.2 16.1 67.5 24.1 79c5.9 8 13.6 17.1 17.8 26.1 2.4 5.9 3.1 12.2 5.6 18.5 5.6 15.3 10.8 32.4 18.1 46.7 3.8 7.3 8 15 12.9 21.6 2.8 3.8 7.7 5.6 8.7 11.8-4.9 7-5.2 17.4-8 26.1-12.5 39.3-7.7 88.1 10.1 117 5.6 8.7 18.8 27.9 36.6 20.5 15.7-6.3 12.2-26.1 16.7-43.5 1-4.2.3-7 2.4-9.7v.7c4.9 9.7 9.7 19.2 14.3 28.9 10.8 17.1 29.6 34.8 45.3 46.7 8.4 6.3 15 17.1 25.4 20.9v-1h-.7c-2.1-3.1-5.2-4.5-8-7-6.3-6.3-13.2-13.9-18.1-20.9-14.6-19.5-27.5-41.1-39-63.4-5.6-10.8-10.4-22.6-15-33.4-2.1-4.2-2.1-10.4-5.6-12.5-5.2 7.7-12.9 14.3-16.7 23.7-6.6 15-7.3 33.4-9.7 52.6-1.4.3-.7 0-1.4.7-11.1-2.8-15-14.3-19.2-24-10.4-24.7-12.2-64.4-3.1-93 2.4-7.3 12.9-30.3 8.7-37.3-2.1-6.6-9.1-10.4-12.9-15.7-4.5-6.6-9.4-15-12.5-22.3-8.4-19.5-12.5-41.1-21.6-60.6-4.3-9.2-11.6-18.6-17.5-26.9-6.6-9.4-13.9-16-19.2-27.2-1.7-3.8-4.2-10.1-1.4-14.3.7-2.8 2.1-3.8 4.9-4.5 4.5-3.8 17.4 1 21.9 3.1 12.9 5.2 23.7 10.1 34.5 17.4 4.9 3.5 10.1 10.1 16.4 11.8h7.3c11.1 2.4 23.7.7 34.1 3.8 18.5 5.9 35.2 14.6 50.1 24 45.6 28.9 83.2 70 108.6 119.1 4.2 8 5.9 15.3 9.8 23.7 7.3 17.1 16.4 34.5 23.7 51.2 7.3 16.4 14.3 33.1 24.7 46.7 5.2 7.3 26.1 11.1 35.5 15 7 3.1 17.8 5.9 24 9.7 11.8 7.3 23.7 15.7 34.8 23.7 5.8 4.3 23.2 13 24.2 19.9z"/><path class="st0" d="M116.4 90.8c-5.9 0-10.1.7-14.3 1.7v.7h.7c2.8 5.6 7.7 9.4 11.1 14.3 2.8 5.6 5.2 11.1 8 16.7l.7-.7c4.9-3.5 7.3-9.1 7.3-17.4-2.1-2.4-2.4-4.9-4.2-7.3-2-3.5-6.5-5.2-9.3-8z"/></svg>