<svg xmlns="http://www.w3.org/2000/svg" viewBox="0 0 512 512" style="enable-background:new 0 0 512 512" xml:space="preserve"><radialGradient id="a" cx=".998" cy="511.092" r="2" gradientTransform="matrix(256 0 0 256 .5 -131095.5)" gradientUnits="userSpaceOnUse"><stop offset="0" style="stop-color:#20c6b7"/><stop offset="1" style="stop-color:#4d9abf"/></radialGradient><path d="m371.1 177.7-.2-.1-.3-.2c-.3-.3-.4-.8-.4-1.2l10.3-63.1 48.5 48.4-50.4 21.4-.4.1h-.2l-.3-.2c-1.9-2.1-4.1-3.8-6.6-5.1zm70.3-3.9 51.8 51.8c10.8 10.8 16.1 16.1 18.1 22.4.3.9.5 1.8.7 2.8l-123.8-52.4-.2-.1c-.5-.2-1.1-.4-1.1-.9s.6-.7 1.1-.9l.2-.1 53.2-22.6zm68.5 93.5c-2.7 5-7.9 10.2-16.7 19.1l-58.4 58.3-75.6-15.7-.4-.1c-.7-.1-1.4-.2-1.4-.8-.6-6.3-3.8-12.1-8.8-15.9-.3-.3-.2-.8-.1-1.2v-.2l14.2-87.1.1-.3c.1-.7.2-1.4.8-1.4 6.2-.8 11.7-4 15.5-8.9l.4-.4c.4-.2.9 0 1.4.2l129 54.4zm-88.6 90.9-96.1 96 16.4-100.9v-.1l.1-.4c.1-.3.5-.5.8-.6l.2-.1c3.6-1.5 6.8-3.9 9.3-6.9.3-.4.7-.7 1.2-.8h.4l67.7 13.8zM304.9 474.4l-10.8 10.8-119.7-172.8-.1-.2c-.2-.3-.4-.5-.3-.8 0-.2.1-.4.3-.6l.1-.2c.4-.5.7-1.1 1-1.6l.3-.5c.2-.3.4-.6.7-.8.3-.1.7-.1 1 0L310 335c.4.1.7.2 1 .4.2.2.2.4.3.6 1.9 7.1 7 12.9 13.7 15.7.4.2.2.6 0 1-.1.2-.2.4-.2.6-1.7 10.3-16 97.6-19.9 121.1zM282.3 497c-8 7.9-12.7 12.1-18 13.8-5.2 1.7-10.9 1.7-16.1 0-6.2-2-11.6-7.3-22.4-18.1L105.6 372.6 137 324c.1-.2.3-.5.5-.6.3-.2.8-.1 1.2 0 7.2 2.2 14.9 1.8 21.9-1.1.4-.1.7-.2 1 0l.4.4L282.3 497zM94 361l-27.6-27.5 54.5-23.2.4-.1c.5 0 .7.5 1 .9.5.8 1.1 1.7 1.7 2.5l.2.2c.2.2.1.5-.1.7L94 361zm-39.8-39.8-34.9-34.9c-5.9-5.9-10.2-10.2-13.2-13.9l106.1 22 .4.1c.7.1 1.4.2 1.4.8 0 .7-.8 1-1.5 1.2l-.3.1-58 24.6zM0 254.6c.1-2.2.5-4.5 1.2-6.6 2-6.2 7.4-11.6 18.1-22.4L64 181c20.6 29.8 41.2 59.6 61.8 89.3.4.5.8 1 .3 1.4-2 2.2-3.9 4.5-5.3 7.1-.1.3-.4.6-.7.8-.2.1-.4.1-.6 0L0 254.6zm75.9-85.5 60-60c5.6 2.5 26.2 11.1 44.5 18.9 13.9 5.9 26.6 11.2 30.6 13 .4.2.8.3.9.7.1.2.1.5 0 .8-1.9 8.8.7 18 7 24.4.4.4 0 1-.3 1.5l-.2.3-61 94.3c-.2.3-.3.5-.6.7-.3.2-.8.1-1.1 0-2.4-.6-4.8-1-7.3-1-2.2 0-4.6.4-7 .8-.3 0-.5.1-.7-.1-.2-.2-.4-.4-.6-.7l-64.2-93.6zM148.1 97l77.7-77.6C236.6 8.6 242 3.2 248.2 1.2c5.2-1.7 10.9-1.7 16.1 0 6.2 2 11.6 7.3 22.4 18.1l16.8 16.8-55.3 85.5c-.1.2-.3.5-.5.6-.3.2-.8.1-1.2 0-8.8-2.7-18.5-.8-25.7 4.9-.4.4-.9.2-1.3 0-7.2-3-63.4-26.7-71.4-30.1zm167.2-49.1 51 51L354 175v.2l-.1.5c-.1.3-.4.3-.7.4-2.6.8-5.1 2-7.3 3.6l-.3.2c-.1.2-.3.3-.5.3s-.4 0-.6-.1l-77.8-33-.1-.1c-.5-.2-1.1-.4-1.1-.9-.5-4.3-1.9-8.5-4.1-12.2-.4-.6-.8-1.3-.5-1.9l54.4-84.1zm-52.6 114.9 72.9 30.8c.4.2.8.4 1 .8.1.2.1.5 0 .8-.2 1.1-.4 2.3-.4 3.5v2c0 .5-.5.7-1 .9l-.1.1c-11.5 4.9-162.2 69.1-162.4 69.1-.2 0-.5 0-.7-.2-.4-.4 0-1 .4-1.5l.2-.3 59.9-92.7.1-.2c.3-.6.7-1.2 1.4-1.2l.6.1c1.4.2 2.6.4 3.8.4 9.1 0 17.5-4.4 22.6-12 .1-.2.3-.4.5-.5.3-.2.8-.1 1.2.1zm-83.5 122.7 164.2-69.9s.2 0 .5.2c.9.9 1.7 1.5 2.4 2.1l.4.2c.3.2.7.4.7.7v.3l-14.1 86.3-.1.3c-.1.7-.2 1.4-.8 1.4-7.6.5-14.5 4.7-18.4 11.3l-.1.1c-.2.3-.4.6-.7.8-.3.1-.6.1-.9 0l-130.9-27-2.2-6.8z" style="fill:url(#a)"/></svg>