<svg version="1.1" id="Layer_1" xmlns="http://www.w3.org/2000/svg" x="0" y="0" viewBox="0 0 512 512" style="enable-background:new 0 0 512 512" xml:space="preserve"><style>.st2{fill:#ebebeb}</style><path style="fill:#264de4" d="m255.8 512-148.2-41.1-33-370.3h362.8l-33.1 370.2z"/><path style="fill:#2965f1" d="m376 447.2 28.3-316.3H256v349.6z"/><path class="st2" d="m150.3 268.2 4.1 45.4H256v-45.4zM142.1 176.3l4.2 45.4H256v-45.4zM256 386.2h-.2l-50.6-13.7-3.2-36.2h-45.6l6.4 71.3 93 25.9.2-.1z"/><path d="M160 0h55v23h-32v23h32v23h-55zM226 0h55v20h-32v4h32v46h-55V49h32v-4h-32zM292 0h55v20h-32v4h32v46h-55V49h32v-4h-32z"/><path style="fill:#fff" d="m361.4 268.2 8.2-91.9H255.8v45.4h64l-4.1 46.5h-59.9v45.4h56l-5.3 58.9-50.7 13.7v47.2l93.1-25.8.7-7.6 10.7-119.6z"/></svg>