<svg xmlns="http://www.w3.org/2000/svg" viewBox="0 0 512 512" style="enable-background:new 0 0 512 512" xml:space="preserve"><path d="M188.4 194c17.8-.1 36.1 5 49.9 16.5 7.1 5.7 12.8 12.9 17.7 20.6 8.8-14.1 21.5-26.2 37.3-32 19.2-7.2 40.9-6.7 60.1.4 16.7 6.1 31.4 16.8 44.7 28.5 10.4 9.2 20 19.2 30.7 28 5.6 4.6 11.7 8.9 18.6 11.2 9.2 3.1 20.1.2 26.7-6.9 6.1-6.6 5.7-18.1-1-24.2-4.3-3.7-11.6-2.9-14.6 2-2.6 3.9-1.2 8.8.9 12.5-5.5-4-11-9.6-11-16.9-1.1-8.5 5.1-15.9 12.6-18.9 14.7-5.9 33-.8 42.3 12.1 8.9 12 9.6 27.9 8.1 42.2-1.9 13.6-9.5 26.3-20.8 34.2-15.9 11.3-36 14.8-55.1 14.6-18.4-.5-36.6-4.7-53.6-11.5-28.5-11.5-55.1-27.3-84.6-36.4-9.8-3.8-20.1-5.8-30.6-6.5-8.3-.1-16.2-.4-24 .1-9.6.9-19.1 2.9-28 6.4-29.9 9.3-57 25.5-86 37-24.5 9.5-51.7 14-77.7 8.7-14.6-2.9-29-9.4-38.9-20.8-8.4-9.7-12.4-22.8-12-35.6-.5-12.1 2.2-24.9 10.2-34.3 7.4-8.9 19.4-13.4 30.8-12.4 7.4.3 14.9 3.6 19.4 9.5 3.6 4.7 3.8 11.2 2.2 16.7-1.9 5-5.9 8.8-10.2 11.8 2.2-3.7 3.5-8.6.9-12.4-3.2-5.2-11-5.7-15.2-1.4-5.1 5.3-6.2 13.9-2.8 20.3 3.7 6.8 11.4 10.6 18.9 11.4 11.3 1 21.1-6 29.3-12.8 17.1-14.7 32.5-31.6 51.5-44.1 15.8-10.6 34.3-17.7 53.3-17.6z" style="fill:#423426"/></svg>