<svg xmlns="http://www.w3.org/2000/svg" viewBox="0 0 500 500" style="enable-background:new 0 0 500 500" xml:space="preserve"><path d="M201.8 205.8c12.7-.1 25.7 3.6 35.6 11.8 5.1 4.1 9.1 9.2 12.6 14.7 6.2-10.1 15.3-18.7 26.6-22.8 13.7-5.1 29.2-4.8 42.8.3 11.9 4.4 22.4 12 31.8 20.3 7.4 6.5 14.3 13.7 21.9 20 4 3.3 8.3 6.3 13.3 8 6.6 2.2 14.3.1 19-4.9 4.4-4.7 4.1-12.9-.7-17.3-3-2.6-8.3-2.1-10.4 1.4-1.9 2.8-.8 6.2.6 8.9-3.9-2.9-7.9-6.9-7.8-12.1-.8-6 3.7-11.3 9-13.4 10.4-4.2 23.5-.6 30.1 8.6 6.3 8.6 6.8 19.9 5.7 30.1-1.3 9.7-6.8 18.8-14.8 24.4-11.3 8.1-25.6 10.6-39.3 10.4-13.1-.4-26.1-3.3-38.2-8.2-20.3-8.2-39.3-19.4-60.3-26-7-2.7-14.4-4.2-21.8-4.6-5.9 0-11.5-.3-17.1.1-6.8.7-13.6 2.1-20 4.6-21.3 6.6-40.6 18.2-61.3 26.4-17.5 6.8-36.8 10-55.4 6.2C93.3 290.6 83 286 76 277.8c-6-6.9-8.9-16.2-8.6-25.4-.3-8.6 1.6-17.7 7.2-24.4 5.3-6.3 13.8-9.6 22-8.9 5.3.2 10.6 2.5 13.9 6.8 2.6 3.4 2.7 8 1.6 11.9-1.4 3.5-4.2 6.3-7.2 8.4 1.6-2.6 2.5-6.1.7-8.9-2.3-3.7-7.9-4-10.8-1-3.6 3.8-4.4 9.9-2 14.5 2.7 4.8 8.1 7.6 13.5 8.1 8 .7 15-4.3 20.9-9.1 12.2-10.5 23.2-22.5 36.7-31.4 11.2-7.6 24.4-12.7 37.9-12.6z" style="fill:#423426"/></svg>