<svg version="1.1" id="Layer_1" xmlns="http://www.w3.org/2000/svg" x="0" y="0" viewBox="0 0 500 500" style="enable-background:new 0 0 500 500" xml:space="preserve"><style>.st0{fill:#362701}</style><g id="XMLID_25_"><path id="XMLID_33_" class="st0" d="M286.2 225.7c-8 0-14 3.9-14 13.4 0 7.1 3.9 12.1 13.5 12.1 8.1 0 13.7-4.8 13.7-12.4.1-8.6-4.9-13.1-13.2-13.1zm-16 66.7c-1.9 2.3-3.8 4.8-3.8 7.7 0 5.8 7.4 7.6 17.6 7.6 8.4 0 19.9-.6 19.9-8.4 0-4.7-5.5-5-12.5-5.4l-21.2-1.5zm43.1-66.3c2.6 3.3 5.4 8 5.4 14.7 0 16.1-12.7 25.6-31 25.6-4.7 0-8.9-.6-11.5-1.3l-4.8 7.7 14.3.9c25.2 1.6 40 2.3 40 21.7 0 16.7-14.7 26.2-40 26.2-26.3 0-36.4-6.7-36.4-18.2 0-6.5 2.9-10 8-14.8-4.8-2-6.4-5.7-6.4-9.6 0-3.2 1.6-6.1 4.2-8.9 2.6-2.8 5.5-5.5 9-8.7-7.1-3.5-12.5-11.1-12.5-21.8 0-16.7 11.1-28.2 33.3-28.2 6.3 0 10 .6 13.4 1.5h28.4v12.4l-13.4.8"/><path id="XMLID_36_" class="st0" d="M352.3 199.7c-8.3 0-13.1-4.8-13.1-13.1s4.8-12.8 13.1-12.8c8.4 0 13.2 4.5 13.2 12.8s-4.8 13.1-13.2 13.1zm-18.8 87.4v-11.5l7.4-1c2-.3 2.3-.7 2.3-2.9v-42.8c0-1.6-.4-2.6-1.9-3.1l-7.9-2.8 1.6-11.8h30.1v60.4c0 2.3.1 2.6 2.3 2.9l7.4 1V287l-41.3.1"/><path id="XMLID_37_" class="st0" d="M432.5 281.4c-6.3 3.1-15.4 5.8-23.7 5.8-17.3 0-23.9-7-23.9-23.4v-38.1c0-.9 0-1.5-1.2-1.5h-10.2v-12.9c12.8-1.5 17.9-7.9 19.5-23.7h13.8v20.7c0 1 0 1.5 1.2 1.5h20.5v14.5h-21.7V259c0 8.6 2 11.9 9.9 11.9 4.1 0 8.3-1 11.8-2.3l4 12.8"/><path id="XMLID_38_" d="m217 243.3-66.5-66.5c-3.8-3.8-10-3.8-13.9 0l-13.8 13.8 17.5 17.5c4.1-1.4 8.7-.5 12 2.8 3.3 3.3 4.2 8 2.8 12.1l16.9 16.9c4.1-1.4 8.8-.5 12.1 2.8 4.6 4.6 4.6 11.9 0 16.5s-11.9 4.6-16.5 0c-3.4-3.4-4.3-8.5-2.5-12.7l-15.7-15.7v41.4c1.1.6 2.2 1.3 3.1 2.2 4.6 4.6 4.6 11.9 0 16.5s-12 4.6-16.5 0c-4.6-4.6-4.6-12 0-16.5 1.1-1.1 2.4-2 3.8-2.5v-41.8c-1.4-.6-2.7-1.4-3.8-2.5-3.5-3.5-4.3-8.5-2.5-12.8L116 197.4 70.4 243c-3.8 3.8-3.8 10 0 13.9l66.5 66.5c3.8 3.8 10 3.8 13.9 0l66.2-66.2c3.8-3.9 3.8-10.1 0-13.9" style="fill:#f03c2e"/></g></svg>