<svg xmlns="http://www.w3.org/2000/svg" width="120" height="60"><path d="M40.011 41.753V18.708h1.251v3.625a4.74 4.74 0 0 0 .409-.51 6.195 6.195 0 0 1 5.65-3.507c2.852-.085 5.166.97 6.528 3.507a11.267 11.267 0 0 1 .272 10.33c-1.268 2.843-4.4 4.256-7.752 3.737a6.272 6.272 0 0 1-5.004-3.302v9.165Zm1.251-14.892c.111 1.123.154 1.923.281 2.706.494 3.08 2.315 4.91 5.174 5.242a5.88 5.88 0 0 0 6.46-3.736 10.016 10.016 0 0 0-.222-8.238 5.761 5.761 0 0 0-6.067-3.353 5.608 5.608 0 0 0-5.013 4.145 28.424 28.424 0 0 0-.613 3.234ZM80.758 29.992a6.74 6.74 0 0 1-6.587 5.957c-5.242.264-7.701-3.216-8.093-7.233a11.59 11.59 0 0 1 1.021-6.383 7.123 7.123 0 0 1 7.413-3.974 6.808 6.808 0 0 1 6.042 5.183 34.968 34.968 0 0 1 .587 3.83H67.363c-.255 3.642 1.702 6.569 4.476 7.275 3.456.851 6.409-.646 7.48-3.931.24-.843.673-.962 1.44-.724Zm-13.395-3.787h12.314c-.076-3.88-2.493-6.689-5.77-6.731-3.71-.06-6.382 2.646-6.544 6.731zM83.294 30.077h1.209a4.842 4.842 0 0 0 2.842 4.17 7.43 7.43 0 0 0 6.45-.17 2.902 2.902 0 0 0 1.703-2.85 2.63 2.63 0 0 0-1.77-2.63c-1.328-.494-2.74-.766-4.094-1.2a29.998 29.998 0 0 1-4.119-1.507c-2.178-1.063-2.314-5.208.153-6.518a8.689 8.689 0 0 1 8.306-.128 4.374 4.374 0 0 1 2.213 4.46h-1.038c0-.052-.094-.094-.094-.145-.127-3.31-2.902-4.332-5.88-4.043a7.804 7.804 0 0 0-2.553.775 2.553 2.553 0 0 0-1.481 2.553 2.553 2.553 0 0 0 1.702 2.4c1.31.476 2.68.783 4.025 1.157 1.081.298 2.204.494 3.251.851a3.838 3.838 0 0 1 2.638 3.464 4.093 4.093 0 0 1-2.204 4.255c-2.842 1.608-7.523 1.183-9.608-.851a5.676 5.676 0 0 1-1.65-4.043ZM112.075 23.703h-1.131c0-.153-.06-.29-.077-.417a3.702 3.702 0 0 0-3.013-3.557 7.43 7.43 0 0 0-4.774.23 2.902 2.902 0 0 0-2.102 2.766 2.672 2.672 0 0 0 2.043 2.689c1.702.527 3.446.85 5.174 1.327a14.467 14.467 0 0 1 1.65.503 4.255 4.255 0 0 1 .23 7.922 9.472 9.472 0 0 1-7.659.077 5.31 5.31 0 0 1-3.2-5.157h1.107a6.204 6.204 0 0 0 9.446 3.949 3.038 3.038 0 0 0 1.634-2.843 2.63 2.63 0 0 0-1.795-2.612c-1.328-.494-2.74-.758-4.094-1.192a30.151 30.151 0 0 1-4.144-1.49c-2.128-1.046-2.298-5.156.127-6.467a8.57 8.57 0 0 1 8.442-.093 4.45 4.45 0 0 1 2.136 4.365zM37.944 35.532a1.949 1.949 0 0 1-2.417-.919c-1.388-2.076-2.92-4.059-4.392-6.084l-.638-.851c-1.753 2.348-3.506 4.604-5.106 6.944a1.872 1.872 0 0 1-2.298.902l6.579-8.825-6.12-7.974a2.034 2.034 0 0 1 2.426.85c1.421 2.077 2.996 4.06 4.562 6.162 1.574-2.085 3.131-4.076 4.587-6.136a1.83 1.83 0 0 1 2.28-.85l-2.374 3.148c-1.064 1.404-2.11 2.817-3.217 4.187a.851.851 0 0 0 0 1.268c2.034 2.698 4.051 5.404 6.128 8.178zM65.874 18.64v1.191a6.17 6.17 0 0 0-6.57 6.374V35.566h-1.217V18.708h1.191v3.455c1.473-2.52 3.745-3.455 6.596-3.523zM7.333 26.588c.178-.85.289-1.778.536-2.646 1.472-5.234 7.472-7.413 11.599-4.17 2.417 1.897 3.021 4.587 2.902 7.616H8.754c-.222 5.413 3.685 8.68 8.68 7.013a5.183 5.183 0 0 0 3.293-3.668c.264-.851.69-.996 1.498-.75a6.91 6.91 0 0 1-3.302 5.047 8 8 0 0 1-9.318-1.191A8.383 8.383 0 0 1 7.51 28.92c0-.29-.11-.579-.17-.851q-.008-.757-.008-1.48Zm1.438-.366h12.314c-.077-3.923-2.553-6.706-5.855-6.731-3.676-.051-6.306 2.672-6.468 6.714Z"/></svg>