<svg version="1.1" id="Layer_1" xmlns="http://www.w3.org/2000/svg" x="0" y="0" viewBox="0 0 512 512" style="enable-background:new 0 0 512 512" xml:space="preserve"><style>.st2{fill-rule:evenodd;clip-rule:evenodd;fill:#fff}</style><path d="M477.3 243.4c-.5.1-.9 1.1-.9 1.7-.1 3.7-.2 13.5-.2 20.1 0 .2.3.6.6.6 1.4.1 4.7.2 7.6.2 4 0 6.3-.6 7.6-1.1 3.3-1.7 4.9-5.3 4.9-9.2 0-9-6.3-12.4-15.6-12.4-.8-.2-2.7-.2-4 .1zm23.8 41.3c0-9.1-6.7-14.2-18.9-14.2-.6 0-4.4-.1-5.4.1-.3.1-.6.3-.6.6 0 6.6-.1 17 .2 21.1.2 1.8 1.5 4.3 3 5 1.7.9 5.5 1.1 8 1.1 7.3-.1 13.7-4.2 13.7-13.7zm-42.7-46.4c.9 0 3.7.3 10.8.3 6.7 0 12.1-.2 18.7-.2 8 0 19.1 2.9 19.1 14.9 0 5.9-4.2 10.6-9.6 12.9-.3.1-.3.3 0 .4 7.8 1.9 14.6 6.7 14.6 15.8 0 8.9-5.5 14.5-13.6 18-4.9 2.1-11 2.9-17.2 2.9-4.7 0-17.4-.6-24.4-.4-.7-.3.6-3.6 1.3-4.2 1.7-.1 3-.2 4.7-.7 2.5-.6 2.8-1.4 3.1-5.2.2-3.2.2-14.7.2-22.8 0-11.2.1-18.8 0-22.5-.1-2.9-1.1-3.8-3.1-4.3-1.6-.3-4.2-.6-6.3-.9-.4-.5 1.2-3.6 1.7-4zm-53.3 57.5c2.2 1.8 6.6 2.5 10.4 2.5 5 0 10-.9 14.8-5.3 4.9-4.4 8.3-11.3 8.3-22.2 0-10.4-4-18.9-12.1-23.9-4.6-2.9-10.5-4.1-17.4-4.1-2 0-4 .1-5.2.6-.3.2-.9 1-.9 1.5-.2 1.8-.2 16.1-.2 24.4 0 8.6 0 20.6.2 22 .1 1.4.7 3.5 2.1 4.5zm-21-57.5c1.8 0 8.5.3 11.7.3 5.8 0 10-.3 21-.3 9.2 0 17 2.5 22.5 7.2 6.7 5.8 10.3 13.9 10.3 23.7 0 14-6.4 22-12.8 26.6-6.4 4.7-14.7 7.5-26.5 7.5-6.3 0-17.1-.2-26.1-.3h-.1c-.5-.8.7-4.1 1.5-4.2 2.4-.3 3-.4 4.3-.8 1.9-.7 2.3-1.8 2.6-5.2.3-6.4.2-14 .2-22.7 0-6.2.1-18.3-.1-22.2-.3-3.2-1.7-4.1-4.4-4.6-1.4-.3-3.2-.6-5.8-.9-.4-.7 1.3-3.5 1.7-4.1z" style="fill-rule:evenodd;clip-rule:evenodd;fill:#8e714e"/><path d="M272.3 299.4c-2.3-.3-4-.6-6-1.6-.3-.2-.7-1.1-.7-1.5-.2-3.2-.2-12.5-.2-18.7 0-5-.8-9.3-3-12.4-2.5-3.5-6.1-5.5-10.7-5.5-4.1 0-9.5 2.8-14 6.7-.1.1-.8.7-.7-.3 0-1 .2-3 .3-4.4.1-1.3-.6-1.9-.6-1.9-3 1.5-11.3 3.4-14.3 3.7-2.2.5-2.8 2.6-.5 3.3h.1c2.5.7 4.2 1.6 5.5 2.4.9.7.8 1.8.8 2.6.1 6.9.1 17.6-.2 23.4-.1 2.3-.7 3.1-2.4 3.5l.2-.1c-1.3.3-2.3.6-3.9.7-.6.6-.6 3.5 0 4.2 1 0 6.4-.3 10.8-.3 6.1 0 9.2.3 10.8.3.6-.7.8-3.5.5-4.2-1.8-.1-3-.3-4.2-.6-1.7-.4-2.1-1.2-2.2-3.1-.2-4.9-.2-15.2-.2-22.3 0-1.9.6-2.9 1.1-3.4 2.1-1.8 5.5-3.1 8.6-3.1 3 0 4.9.9 6.4 2.1 2 1.7 2.7 4.1 3 5.8.5 4 .3 11.8.3 18.7 0 3.7-.3 4.6-1.7 5.1-.6.3-2.3.6-4.3.8-.6.6-.5 3.5 0 4.2 2.7 0 5.8-.3 10.4-.3 5.7 0 9.4.3 10.9.3.3-.7.5-3.4.1-4.1zm25.6-35.3c-4.9 0-7.9 3.8-7.9 9.7 0 6 2.7 12.9 10.3 12.9 1.3 0 3.7-.6 4.8-1.8 1.8-1.7 3-5 3-8.5-.1-7.7-3.9-12.3-10.2-12.3zm-.6 40.8c-1.8 0-3.1.6-4 1-3.9 2.5-5.6 4.9-5.6 7.8 0 2.7 1 4.8 3.2 6.7 2.7 2.3 6.4 3.4 11.1 3.4 9.4 0 13.6-5.1 13.6-10.1 0-3.5-1.8-5.8-5.4-7.1-2.6-1.1-7.3-1.7-12.9-1.7zm.6 24c-5.6 0-9.7-1.2-13.2-3.9-3.4-2.6-4.9-6.5-4.9-9.1 0-.7.2-2.8 1.8-4.6 1-1.1 3.2-3.2 8.5-6.8.2-.1.3-.2.3-.4s-.2-.4-.4-.5c-4.3-1.7-5.6-4.3-6-5.8v-.2c-.1-.6-.3-1.1.6-1.7.6-.5 1.6-1 2.6-1.7 1.6-.9 3.2-1.9 4.3-2.8.2-.2.2-.4.2-.6 0-.2-.2-.4-.4-.5-6.5-2.1-9.7-6.9-9.7-14.1 0-4.7 2.1-9 5.9-11.6 2.6-2 9.1-4.5 13.3-4.5h.3c4.3.1 6.7 1 10.2 2.2 1.8.6 3.6.9 6 .9 3.6 0 5.2-1.1 6.5-2.4.1.2.3.6.4 1.8.1 1.2-.3 3-1.2 4.3-.7 1-2.4 1.8-4.1 1.8h-.5c-1.7-.2-2.4-.4-2.4-.4l-.4.2c-.1.2 0 .4.1.6l.1.2c.2.8.6 3.3.6 4 0 7.6-3 10.9-6.3 13.4-3.1 2.3-6.7 3.8-10.8 4.2-.1 0-.5 0-1.3.1-.5 0-1.1.1-1.2.1h-.1c-.7.2-2.6 1.1-2.6 2.7 0 1.4.8 3 4.8 3.3.8.1 1.7.1 2.6.2 5.3.4 11.8.8 14.9 1.8 4.2 1.6 6.9 5.4 6.9 9.9 0 6.8-4.9 13.2-13 17.2-4 1.8-8 2.7-12.4 2.7zm52.7-64.4c-1.9 0-3.7.5-5 1.4-3.6 2.2-5.5 6.7-5.5 13.1 0 12.1 6.1 20.6 14.8 20.6 2.6 0 4.6-.7 6.4-2.2 2.7-2.2 4.1-6.7 4.1-12.8 0-12-6-20.1-14.8-20.1zm1.7 39.6c-15.7 0-21.3-11.5-21.3-22.4 0-7.6 3-13.4 9.1-17.6 4.3-2.7 9.5-4.2 14.1-4.2 12 0 20.4 8.6 20.4 21 0 8.4-3.3 15.1-9.7 19.1-3 2.1-8.3 4.1-12.6 4.1zm-164.7-39.6c-1.9 0-3.7.5-5 1.4-3.6 2.2-5.5 6.7-5.5 13.1 0 12.1 6.1 20.6 14.8 20.6 2.6 0 4.6-.7 6.4-2.2 2.7-2.2 4.1-6.7 4.1-12.8 0-12-5.9-20.1-14.8-20.1zm1.7 39.6c-15.7 0-21.3-11.5-21.3-22.4 0-7.6 3-13.4 9.1-17.6 4.3-2.7 9.5-4.2 14.1-4.2 12 0 20.4 8.6 20.4 21 0 8.4-3.3 15.1-9.7 19.1-2.9 2.1-8.2 4.1-12.6 4.1zm-105.6-.9c-.2-.3-.4-1.1-.3-2.1 0-.7.2-1.2.3-1.4 1.9-.3 3-.6 4.1-.8 1.8-.5 2.6-1.5 2.7-3.8.3-5.5.3-16.1.2-23.4v-.2c0-.8 0-1.8-1-2.6-1.5-.9-3.2-1.8-5.5-2.4-.8-.3-1.4-.7-1.3-1.3 0-.6.6-1.2 1.8-1.4 3-.3 11-2.2 14.1-3.6.2.2.5.7.5 1.5l-.1 1c-.1 1-.2 2.2-.2 3.4 0 .4.4.6.7.6.2 0 .4-.1.6-.2 5.9-4.6 11.3-6.3 14-6.3 4.5 0 8 2.1 10.7 6.6.2.3.4.4.6.4.2 0 .5-.1.6-.3 5.5-4.2 10.9-6.7 14.5-6.7 8.6 0 13.7 6.4 13.7 17.2 0 3 0 7-.1 10.6 0 3.2-.1 6.2-.1 8.3 0 .5.6 1.9 1.7 2.2 1.3.6 3 .9 5.4 1.3h.1c.2.6-.2 3-.6 3.5-.6 0-1.4 0-2.3-.1-1.8-.1-4.3-.2-7-.2-5.7 0-8.7.1-11.5.3-.2-.7-.3-3 0-3.5 1.7-.3 2.5-.6 3.5-.8 1.8-.6 2.3-1.4 2.4-3.8 0-1.8.4-16.7-.2-20.3-.6-3.7-3.3-8-9.4-8-2.3 0-5.9.9-9.4 3.6-.2.2-.4.6-.4.9v.1c.4 1.9.4 4.2.4 7.6v6c0 4.2-.1 8 0 11 0 2 1.2 2.5 2.2 2.9.6.1.9.2 1.4.3.8.2 1.7.4 3 .6.2.4.2 1.6-.1 2.6-.1.6-.3.8-.4.9-3.1-.1-6.4-.2-11.1-.2-1.4 0-3.8.1-5.8.1-1.7 0-3.2.1-4.2.1-.1-.2-.3-.8-.3-1.8 0-.8.2-1.5.4-1.7.5-.1.8-.2 1.3-.2 1.1-.2 2-.4 3-.6 1.6-.5 2.1-1.3 2.2-3.3.3-4.6.6-17.8-.1-21.2-1.1-5.4-4.2-8-9.1-8-2.9 0-6.5 1.4-9.4 3.6-.5.4-.8 1.3-.8 2.1v5.5c0 6.7 0 15 .1 18.6.1 1.1.5 2.4 2.6 2.9.5.1 1.2.3 2.1.4l1.7.3c.2.6.1 2.8-.3 3.5-.9 0-2-.1-3.3-.1a132.915 132.915 0 0 0-14.6 0c-1.6-.2-2.6-.2-3.7-.2z" style="fill-rule:evenodd;clip-rule:evenodd;fill:#442d22"/><path class="st2" d="m35.1 325.3-3.8-1.3s.5-19.3-6.5-20.7c-4.6-5.4.7-227.3 17.4-.7 0 0-5.7 2.9-6.7 7.8-1.1 4.8-.4 14.9-.4 14.9z"/><path d="m35.1 325.3-3.8-1.3s.5-19.3-6.5-20.7c-4.6-5.4.7-227.3 17.4-.7 0 0-5.7 2.9-6.7 7.8-1.1 4.8-.4 14.9-.4 14.9z" style="fill-rule:evenodd;clip-rule:evenodd;fill:#a6a385"/><path class="st2" d="M37.1 306.7s33.2-21.8 25.4-67.2c-7.5-33-25.1-43.8-27.1-47.9-2.1-3-4.2-8.1-4.2-8.1l1.4 91.7c.1.1-2.8 28.1 4.5 31.5"/><path d="M37.1 306.7s33.2-21.8 25.4-67.2c-7.5-33-25.1-43.8-27.1-47.9-2.1-3-4.2-8.1-4.2-8.1l1.4 91.7c.1.1-2.8 28.1 4.5 31.5" style="fill-rule:evenodd;clip-rule:evenodd;fill:#499d4a"/><path class="st2" d="M29.4 307.9S-1.7 286.6.1 249.2c1.8-37.4 23.7-55.8 28-59.1 2.8-3 2.9-4.1 3-7 1.9 4.2 1.6 62.2 1.8 69 .9 26.3-1.4 50.8-3.5 55.8z"/><path d="M29.4 307.9S-1.7 286.6.1 249.2c1.8-37.4 23.7-55.8 28-59.1 2.8-3 2.9-4.1 3-7 1.9 4.2 1.6 62.2 1.8 69 .9 26.3-1.4 50.8-3.5 55.8z" style="fill-rule:evenodd;clip-rule:evenodd;fill:#58aa50"/></svg>