<svg version="1.1" id="Layer_1" xmlns="http://www.w3.org/2000/svg" x="0" y="0" viewBox="0 0 512 512" style="enable-background:new 0 0 512 512" xml:space="preserve"><style>.st2{fill:#ebebeb}.st3{fill:#fff}</style><path style="fill:#e44d26" d="m437.4 100.6-33.1 370.2L255.8 512l-148.2-41.1-33-370.3z"/><path style="fill:#f16529" d="m256 480.5 120-33.3 28.3-316.3H256z"/><path class="st2" d="M191.8 221.7H256v-45.4H142.1l1.1 12.2 11.2 125.1H256v-45.4h-60.1zM202 336.3h-45.6l6.4 71.3 93 25.9.2-.1v-47.2h-.2l-50.6-13.7z"/><path d="M108.4 0h23.1v22.8h21.1V0h23v69h-23V45.9h-21.1V69h-23.1V0zM206 22.9h-20.3V0h63.7v22.9h-20.3V69H206V22.9zM259.5 0h24.1l14.8 24.3L313.2 0h24v69h-22.9V34.8l-15.9 24.6h-.4l-15.9-24.6V69h-22.6zM348.7 0h23.1v46.2h32.5V69h-55.6z"/><path class="st3" d="M255.8 313.6h56l-5.3 58.9-50.7 13.7v47.2l93.1-25.8.7-7.6 10.7-119.6 1.1-12.2H255.8zM255.8 221.6v.1h109.7l.9-10.2 2.1-23 1.1-12.2H255.8z"/></svg>