<svg xmlns="http://www.w3.org/2000/svg" width="120" height="60"><path style="fill:#fff" d="M48.024 33.592v-5.35a.24.24 0 0 1 .07-.16.31.31 0 0 1 .2-.07h1.5a1.81 1.81 0 0 1 1.23.41 1.67 1.67 0 0 1 .46 1.27v.07a1.69 1.69 0 0 1-.47 1.31 1.82 1.82 0 0 1-1.24.42h-1.08v2.1a.18.18 0 0 1-.1.17.44.44 0 0 1-.47 0 .19.19 0 0 1-.1-.17zm.67-2.62h1.08a1 1 0 0 0 .77-.28 1.2 1.2 0 0 0 .28-.85v-.1a1.18 1.18 0 0 0-.28-.84 1 1 0 0 0-.77-.28h-1.08zM53.814 32.142v-2.4a1.69 1.69 0 0 1 .47-1.31 2.06 2.06 0 0 1 2.49 0 1.65 1.65 0 0 1 .47 1.31v2.4a1.66 1.66 0 0 1-.47 1.32 2.06 2.06 0 0 1-2.49 0 1.7 1.7 0 0 1-.47-1.32zm.67 0c0 .75.35 1.13 1 1.13a1 1 0 0 0 .78-.28 1.15 1.15 0 0 0 .27-.85v-2.4a1.12 1.12 0 0 0-.27-.84 1 1 0 0 0-.78-.28c-.69 0-1 .37-1 1.12zM59.644 33.012a.38.38 0 0 1 .09-.25.25.25 0 0 1 .19-.12.35.35 0 0 1 .19.1l.23.22a1 1 0 0 0 .37.23 1.7 1.7 0 0 0 .59.1 1.25 1.25 0 0 0 .81-.26.9.9 0 0 0 .29-.73.93.93 0 0 0-.27-.71 1.73 1.73 0 0 0-.65-.42l-.84-.31a1.67 1.67 0 0 1-.65-.5 1.31 1.31 0 0 1-.27-.87 1.55 1.55 0 0 1 .16-.73 1.1 1.1 0 0 1 .42-.46 1.89 1.89 0 0 1 .55-.23 2.57 2.57 0 0 1 .62-.08 3 3 0 0 1 .94.15c.3.09.45.23.45.38a.41.41 0 0 1-.08.24.23.23 0 0 1-.21.13 2.13 2.13 0 0 1-.35-.14 1.92 1.92 0 0 0-.74-.15 1.39 1.39 0 0 0-.78.19.71.71 0 0 0-.3.63.76.76 0 0 0 .26.6 2.12 2.12 0 0 0 .66.36c.26.09.51.2.78.31a1.62 1.62 0 0 1 .91 1.54 1.58 1.58 0 0 1-.47 1.24 1.89 1.89 0 0 1-1.27.42 2.24 2.24 0 0 1-1.19-.3c-.31-.19-.44-.39-.44-.58zM65.034 28.312a.31.31 0 0 1 .07-.21.2.2 0 0 1 .17-.09h3.24a.21.21 0 0 1 .18.09.37.37 0 0 1 .06.21.39.39 0 0 1-.06.21.22.22 0 0 1-.18.1h-1.27v5a.19.19 0 0 1-.1.17.44.44 0 0 1-.47 0 .19.19 0 0 1-.1-.17v-5h-1.29a.2.2 0 0 1-.17-.09.37.37 0 0 1-.08-.22zM71.024 33.592v-5.24a.29.29 0 0 1 .24-.34h.1c.21 0 .39.14.53.42l1.25 2.4 1.26-2.4c.15-.28.33-.42.53-.42a.29.29 0 0 1 .33.24.11.11 0 0 1 0 .08v5.24a.19.19 0 0 1-.09.18.49.49 0 0 1-.47 0 .18.18 0 0 1-.1-.18v-4.16l-1.2 2.28a.29.29 0 0 1-.27.19.26.26 0 0 1-.24-.19l-1.25-2.32v4.22a.17.17 0 0 1-.09.17.49.49 0 0 1-.23.08.39.39 0 0 1-.23-.07.17.17 0 0 1-.07-.18zM77.554 33.552a.14.14 0 0 1 0-.06l1.62-5.24c.05-.16.18-.24.41-.24.23 0 .36.08.41.24l1.65 5.26a.26.26 0 0 1-.13.2.6.6 0 0 1-.29.08.22.22 0 0 1-.24-.15l-.34-1.12h-2.1l-.35 1.17a.21.21 0 0 1-.24.15.53.53 0 0 1-.27-.08.23.23 0 0 1-.13-.21zm1.15-1.59h1.78l-.89-3zM83.954 33.592v-5.35c0-.15.11-.23.33-.23a.42.42 0 0 1 .28.1 1 1 0 0 1 .23.32l2 3.88v-4.07a.19.19 0 0 1 .1-.17.49.49 0 0 1 .47 0 .19.19 0 0 1 .1.17v5.35a.19.19 0 0 1-.1.17.39.39 0 0 1-.23.07.49.49 0 0 1-.43-.31l-2.07-4v4.07a.17.17 0 0 1-.09.17.44.44 0 0 1-.47 0 .16.16 0 0 1-.12-.17z" transform="translate(-22.279 -8.855) scale(1.29515)"/><path d="M42.234 23.612a12 12 0 1 0-2.16 16.83 12 12 0 0 0 2.16-16.83z" style="fill:#ff6c37" transform="translate(-22.279 -10.08) scale(1.29515)"/><path d="m36.784 26.592-5.06 5.1-1.43-1.47c4.98-4.98 5.48-4.53 6.49-3.63z" style="fill:#fff" transform="translate(-22.279 -10.08) scale(1.29515)"/><path d="M31.724 31.832a.18.18 0 0 1-.12-.05l-1.44-1.44a.18.18 0 0 1 0-.25c4.91-4.91 5.58-4.68 6.74-3.63a.16.16 0 0 1 .06.13.14.14 0 0 1-.05.13l-5.06 5.06a.19.19 0 0 1-.13.05zm-1.18-1.61 1.18 1.18 4.8-4.8a1.08 1.08 0 0 0-1.42-.24c-.87.39-2.27 1.58-4.56 3.86z" style="fill:#ff6c37" transform="translate(-22.279 -10.08) scale(1.29515)"/><path d="m33.174 33.102-1.38-1.41 5.06-5c1.36 1.33-.66 3.55-3.68 6.41z" style="fill:#fff" transform="translate(-22.279 -10.08) scale(1.29515)"/><path d="M33.174 33.282a.21.21 0 0 1-.12-.05l-1.41-1.38a.21.21 0 0 1 0-.16.19.19 0 0 1 0-.13l5.06-5.06a.19.19 0 0 1 .26 0 1.55 1.55 0 0 1 .5 1.19c0 1.35-1.54 3.05-4.16 5.53a.21.21 0 0 1-.13.06zm-1.12-1.59 1.13 1.13c2-1.89 3.91-3.84 3.92-5.16a1.14 1.14 0 0 0-.26-.77z" style="fill:#ff6c37" transform="translate(-22.279 -10.08) scale(1.29515)"/><path d="m30.334 30.252 1 1a.06.06 0 0 1 0 .09l-2.11.45a.2.2 0 0 1-.18-.34l1.23-1.22s.04 0 .06.02z" style="fill:#fff" transform="translate(-22.279 -10.08) scale(1.29515)"/><path d="M29.174 31.992a.39.39 0 0 1-.33-.19.38.38 0 0 1 .07-.45l1.22-1.23a.24.24 0 0 1 .32 0l1 1a.22.22 0 0 1 .06.22.23.23 0 0 1-.17.16l-2.11.45zm1.12-1.52-1.13 1.13 1.87-.4zm.09-.09z" style="fill:#ff6c37" transform="translate(-22.279 -10.08) scale(1.29515)"/><path d="M39.474 23.782a1.94 1.94 0 1 0-.35 3.06l-1.36-1.36z" style="fill:#fff" transform="translate(-22.279 -10.08) scale(1.29515)"/><path d="M38.124 27.302a2.12 2.12 0 0 1-1.48-3.61 2.14 2.14 0 0 1 3 0 .17.17 0 0 1 0 .26l-1.62 1.53 1.23 1.21a.17.17 0 0 1 .05.15.18.18 0 0 1-.08.13 2.17 2.17 0 0 1-1.1.33zm0-3.88a1.76 1.76 0 0 0-1.24 3 1.75 1.75 0 0 0 1.94.37l-1.18-1.18a.16.16 0 0 1-.06-.13.16.16 0 0 1 .06-.12l1.56-1.57a1.79 1.79 0 0 0-1.08-.37z" style="fill:#ff6c37" transform="translate(-22.279 -10.08) scale(1.29515)"/><path d="m39.504 23.812-1.71 1.7 1.36 1.36a2.07 2.07 0 0 0 .38-.28 2 2 0 0 0-.03-2.78z" style="fill:#fff" transform="translate(-22.279 -10.08) scale(1.29515)"/><path d="M39.124 27.022a.15.15 0 0 1-.12-.05l-1.36-1.36a.16.16 0 0 1-.06-.13.16.16 0 0 1 .06-.12l1.7-1.67a.18.18 0 0 1 .3 0 2.1 2.1 0 0 1 0 3 1.82 1.82 0 0 1-.4.32.16.16 0 0 1-.12.01zm-1.1-1.54 1.13 1.13a1.92 1.92 0 0 0 .22-.18 1.77 1.77 0 0 0 .52-1.25 1.72 1.72 0 0 0-.43-1.14z" style="fill:#ff6c37" transform="translate(-22.279 -10.08) scale(1.29515)"/><path d="M36.994 26.802a.73.73 0 0 0-1 0l-4.53 4.52.75.76 4.79-4.2a.74.74 0 0 0-.01-1.08z" style="fill:#fff" transform="translate(-22.279 -10.08) scale(1.29515)"/><path d="M32.174 32.262a.18.18 0 0 1-.12-.05l-.76-.76a.18.18 0 0 1 0-.25l4.53-4.51a.92.92 0 0 1 1.3 0 .92.92 0 0 1 .27.68.94.94 0 0 1-.31.66l-4.79 4.2a.17.17 0 0 1-.12.03zm-.53-.94.5.51 4.7-4.09a.55.55 0 0 0 .19-.4.53.53 0 0 0-.17-.41.56.56 0 0 0-.79 0z" style="fill:#ff6c37" transform="translate(-22.279 -10.08) scale(1.29515)"/><path d="M27.954 36.472a.1.1 0 0 0 0 .12l.2.87a.25.25 0 0 1-.41.23l-1.37-1.32 4.27-4.3h1.48l1 1a22.69 22.69 0 0 1-5.17 3.4z" style="fill:#fff" transform="translate(-22.279 -10.08) scale(1.29515)"/><path d="M27.864 37.942a.43.43 0 0 1-.3-.13l-1.31-1.31a.16.16 0 0 1-.06-.13.16.16 0 0 1 .06-.12l4.3-4.31a.17.17 0 0 1 .09-.05h1.49a.18.18 0 0 1 .12 0l1 1a.16.16 0 0 1 .05.14.16.16 0 0 1-.06.13l-.08.07a24.5 24.5 0 0 1-5.13 3.29l.19.81a.43.43 0 0 1-.41.53zm-1.22-1.57 1.18 1.19a.06.06 0 0 0 .08 0 .06.06 0 0 0 0-.07l-.2-.87a.28.28 0 0 1 .15-.32 24.59 24.59 0 0 0 5-3.22l-.82-.82h-1.34zm1.44.18z" style="fill:#ff6c37" transform="translate(-22.279 -10.08) scale(1.29515)"/><path d="m25.344 37.402 1-1 1.54 1.54-2.45-.17a.2.2 0 0 1-.09-.37z" style="fill:#fff" transform="translate(-22.279 -10.08) scale(1.29515)"/><path d="m27.914 38.092-2.44-.17a.38.38 0 0 1-.24-.64l1-1a.18.18 0 0 1 .25 0l1.53 1.53a.17.17 0 0 1 0 .2.19.19 0 0 1-.1.08zm-2.44-.56 2 .13-1.1-1.03z" style="fill:#ff6c37" transform="translate(-22.279 -10.08) scale(1.29515)"/><path style="fill:#fff" transform="translate(4.458 14.128) scale(1.29515)" d="m11.62 13.5-2.02.31 1.17-1.16z"/><path d="M30.244 32.692a.17.17 0 0 1-.16-.1.17.17 0 0 1 0-.2l1.16-1.17a.19.19 0 0 1 .26 0l.85.85a.17.17 0 0 1 0 .18.17.17 0 0 1-.14.13l-2 .31zm1.17-1.09-.65.65 1.12-.17z" style="fill:#ff6c37" transform="translate(-22.279 -10.08) scale(1.29515)"/><path d="m32.264 32.192-1.41.18a.18.18 0 0 1-.17-.3l.73-.73z" style="fill:#fff" transform="translate(-22.279 -10.08) scale(1.29515)"/><path d="M30.814 32.562a.37.37 0 0 1-.32-.19.36.36 0 0 1 .06-.43l.73-.73a.19.19 0 0 1 .26 0l.85.85a.18.18 0 0 1-.11.31l-1.4.18zm0-.37 1.06-.13-.47-.47-.6.6zM39.514 24.962a.15.15 0 0 0-.19-.06.14.14 0 0 0-.06.19.43.43 0 0 1-.05.45.13.13 0 0 0 0 .19.11.11 0 0 0 .08 0 .13.13 0 0 0 .13-.04.69.69 0 0 0 .09-.73z" style="fill:#ff6c37" transform="translate(-22.279 -10.08) scale(1.29515)"/><g style="fill:#ff6c37;fill-opacity:1"><g style="fill:#ff6c37;fill-opacity:1"><path class="st6" d="M151.8 125.7c-1.2 2.5-2.2 4.8-3.3 7.1-.3.6-.5 1.4-1.1 1.4-.8 0-.9-.8-1.2-1.5-.9-2-1.8-4-2.7-5.9-.2-.3-.2-.9-.6-.8-.5.1-.4.7-.4 1.1v12.1c0 .6 0 1.2-.1 1.8-.1.6-.5 1-1.1 1-.6-.1-.8-.5-.9-1v-18.8c0-.8-.2-1.9.7-2.2 1-.3 1.6.5 2 1.4 1.1 2.3 2 4.6 3.1 6.8.3.6.4 1.7 1.2 1.8.9 0 1-1.2 1.3-1.8 1.1-2.2 2-4.4 3.1-6.6.4-.9.9-1.8 2-1.6 1.1.3.8 1.4.8 2.3v17.4c0 .9.3 2.3-1 2.3-1.4 0-1.1-1.4-1.1-2.4v-11.5c-.1-.8.1-1.6-.7-2.4zM194.7 126.2c-.6.6-.4 1.4-.4 2.1v11.9c0 .7.2 1.8-.8 1.8-1.1.1-1.1-1-1.1-1.8v-18.4c0-.7-.1-1.6.7-1.8.9-.3 1.4.4 1.8 1.2 1.6 3.6 3.3 7.2 4.9 10.9.3.8.7 1.5 1 2.3.2.4.2 1 .8.8.5-.2.4-.8.4-1.2v-11.7c0-.5 0-.9.1-1.4.1-.7.5-1 1.1-1 .6.1.8.6.8 1.2v18.5c0 .8.3 1.9-.7 2.2-1.1.4-1.5-.7-1.9-1.6-1.9-4.1-3.7-8.3-5.6-12.4-.3-.6-.4-1.3-1.1-1.6zM81.2 130.9c-.1 2.2.1 4.3-.2 6.5-.5 3.1-2.2 4.6-5.3 4.6-3.3 0-5.2-1.4-5.6-4.5-.5-4.5-.6-9.1 0-13.6.4-2.9 2.4-4.3 5.4-4.3 3 0 4.9 1.5 5.4 4.3.5 2.4.2 4.7.3 7zm-2 0c0-1.7.1-3.4 0-5.1-.1-2.6-1.5-4.1-3.8-4-2.2 0-3.5 1.4-3.6 4-.1 3.4-.1 6.9 0 10.3.1 2.6 1.4 4 3.6 4.1 2.3 0 3.7-1.4 3.8-4.1.1-1.7 0-3.4 0-5.2zM180 140.6c0 .7-.1 1.2-.7 1.3-.5.1-.9 0-1.1-.6-.1-.4-.3-.9-.4-1.3-.9-3.1-.9-3.1-3.6-3.1h-.9c-3.4 0-3.4 0-4.6 3.6-.2.7-.3 1.7-1.3 1.4-1-.4-.7-1.4-.5-2.2 1.6-6 3.2-12.1 4.9-18.1.3-.9.4-2.2 1.7-2.1 1.1.1 1.3 1.2 1.5 2.1 1.5 5.7 3.1 11.4 4.6 17.2.2.6.3 1.2.4 1.8zm-6.7-5.6h1c2.2 0 2.3-.1 1.6-2.6-.6-2.4-1.2-4.8-1.9-7.1-.1-.5 0-1.2-.6-1.2s-.7.7-.8 1.3c-.5 2-1 4-1.6 6-1 3.6-.9 3.6 2.3 3.6zM46 130.9v-9.3c0-1.5.5-2 1.7-2h3.4c4.6.1 6.3 2.2 6.2 7.5-.1 3.6-1.9 5.7-5 5.9-.9 0-1.7.1-2.6 0-1.4-.1-1.9.6-1.8 2.1.1 1.8 0 3.6 0 5.3 0 .7-.1 1.5-1 1.5s-.9-.8-.9-1.6v-9.4zm4.7.3c2.9 0 4-.7 4.5-2.8.5-2.1.5-4.1-1-5.7-1.6-1.6-3.7-.9-5.6-.8-.7 0-.7.9-.7 1.6v4.5c0 3.2 0 3.2 2.8 3.2zM99 142.2c-2.1 0-3.8-.4-5.1-2-.4-.5-.9-1.2-.3-1.9.5-.6 1.1-.2 1.5.3 1.2 1.3 2.5 1.7 4.1 1.6 1.5-.1 2.6-.8 3.2-2.5.6-1.7.2-3.3-.9-4.5-1.1-1.2-2.5-1.7-3.9-2.4-2-.9-3.5-2.2-3.7-4.9-.3-3.6 1.3-5.6 4.8-6.3 1.5-.3 2.9.1 4.2.6.7.2 1.3.8 1 1.7-.3 1-1 .6-1.6.3-1.3-.7-2.7-.7-4-.5-1.1.2-2.1.9-2.3 2.3-.2 1.4 0 2.6 1 3.5 1.3 1.1 2.8 1.5 4.2 2.2 2.2 1.1 3.4 3 3.4 5.8 0 2.6-.6 4.6-2.8 5.9-1 .7-2.1.6-2.8.8zM120.9 131.7c0-2.6-.1-5.1 0-7.7.1-1.9-.6-2.5-2.1-2.3-.6.1-1.3 0-1.9 0-.6 0-1-.3-1-1.1 0-.6.4-1 .9-1H127c.5 0 .9.3.9.9 0 .7-.4 1.1-1 1.1-.7 0-1.5.1-2.2 0-1.4-.1-1.8.6-1.8 2.1V140.1c0 .8-.1 1.7-1 1.7-1 0-1-.9-1-1.7v-8.4z" style="fill:#ff6c37;fill-opacity:1" transform="translate(20.759 -30.705) scale(.46394)"/></g></g></svg>